<mxfile host="app.diagrams.net" modified="2024-06-06T10:11:15.993Z" agent="Mozilla/5.0 (Windows NT 10.0; Win64; x64) AppleWebKit/537.36 (KHTML, like Gecko) Chrome/125.0.0.0 Safari/537.36" etag="-S-4o34OKG2D9-N-RsgM" version="24.4.14" type="github">
  <diagram name="第 1 页" id="SwL3U8M1bM2HicuCUBdc">
    <mxGraphModel dx="1434" dy="756" grid="0" gridSize="10" guides="1" tooltips="1" connect="1" arrows="1" fold="1" page="1" pageScale="1" pageWidth="827" pageHeight="1169" math="0" shadow="0">
      <root>
        <mxCell id="0" />
        <mxCell id="1" parent="0" />
        <mxCell id="vLBTxcqde7IN3xj8JdE4-10" value="" style="edgeStyle=orthogonalEdgeStyle;rounded=0;orthogonalLoop=1;jettySize=auto;html=1;" parent="1" source="vLBTxcqde7IN3xj8JdE4-1" target="vLBTxcqde7IN3xj8JdE4-4" edge="1">
          <mxGeometry relative="1" as="geometry" />
        </mxCell>
        <mxCell id="vLBTxcqde7IN3xj8JdE4-1" value="&lt;font style=&quot;font-size: 30px;&quot;&gt;用户&lt;/font&gt;" style="rounded=0;whiteSpace=wrap;html=1;" parent="1" vertex="1">
          <mxGeometry x="320" y="80" width="120" height="60" as="geometry" />
        </mxCell>
        <mxCell id="vLBTxcqde7IN3xj8JdE4-12" style="edgeStyle=orthogonalEdgeStyle;rounded=0;orthogonalLoop=1;jettySize=auto;html=1;exitX=1;exitY=0.5;exitDx=0;exitDy=0;entryX=0;entryY=0.5;entryDx=0;entryDy=0;" parent="1" source="vLBTxcqde7IN3xj8JdE4-4" target="vLBTxcqde7IN3xj8JdE4-8" edge="1">
          <mxGeometry relative="1" as="geometry" />
        </mxCell>
        <mxCell id="vLBTxcqde7IN3xj8JdE4-13" style="edgeStyle=orthogonalEdgeStyle;rounded=0;orthogonalLoop=1;jettySize=auto;html=1;exitX=1;exitY=0.5;exitDx=0;exitDy=0;entryX=0;entryY=0.5;entryDx=0;entryDy=0;" parent="1" source="vLBTxcqde7IN3xj8JdE4-4" target="vLBTxcqde7IN3xj8JdE4-7" edge="1">
          <mxGeometry relative="1" as="geometry" />
        </mxCell>
        <mxCell id="vLBTxcqde7IN3xj8JdE4-14" style="edgeStyle=orthogonalEdgeStyle;rounded=0;orthogonalLoop=1;jettySize=auto;html=1;entryX=0;entryY=0.5;entryDx=0;entryDy=0;" parent="1" source="vLBTxcqde7IN3xj8JdE4-4" target="vLBTxcqde7IN3xj8JdE4-6" edge="1">
          <mxGeometry relative="1" as="geometry" />
        </mxCell>
        <mxCell id="vLBTxcqde7IN3xj8JdE4-17" style="edgeStyle=orthogonalEdgeStyle;rounded=0;orthogonalLoop=1;jettySize=auto;html=1;exitX=1;exitY=0.5;exitDx=0;exitDy=0;entryX=0;entryY=0.5;entryDx=0;entryDy=0;" parent="1" source="vLBTxcqde7IN3xj8JdE4-4" target="vLBTxcqde7IN3xj8JdE4-5" edge="1">
          <mxGeometry relative="1" as="geometry" />
        </mxCell>
        <mxCell id="vLBTxcqde7IN3xj8JdE4-4" value="&lt;font style=&quot;font-size: 31px;&quot;&gt;首页&lt;/font&gt;" style="rounded=0;whiteSpace=wrap;html=1;direction=south;" parent="1" vertex="1">
          <mxGeometry x="350" y="200" width="60" height="120" as="geometry" />
        </mxCell>
        <mxCell id="frlS9GGQCYEtluOQWDQ7-9" style="edgeStyle=orthogonalEdgeStyle;rounded=0;orthogonalLoop=1;jettySize=auto;html=1;exitX=1;exitY=0.5;exitDx=0;exitDy=0;entryX=0;entryY=0.5;entryDx=0;entryDy=0;" parent="1" source="vLBTxcqde7IN3xj8JdE4-5" target="frlS9GGQCYEtluOQWDQ7-7" edge="1">
          <mxGeometry relative="1" as="geometry" />
        </mxCell>
        <mxCell id="frlS9GGQCYEtluOQWDQ7-11" style="edgeStyle=orthogonalEdgeStyle;rounded=0;orthogonalLoop=1;jettySize=auto;html=1;exitX=1;exitY=0.5;exitDx=0;exitDy=0;entryX=0;entryY=0.5;entryDx=0;entryDy=0;" parent="1" source="vLBTxcqde7IN3xj8JdE4-5" target="frlS9GGQCYEtluOQWDQ7-6" edge="1">
          <mxGeometry relative="1" as="geometry" />
        </mxCell>
        <mxCell id="vLBTxcqde7IN3xj8JdE4-5" value="&lt;span style=&quot;font-size: 31px;&quot;&gt;个人中心&lt;/span&gt;" style="rounded=0;whiteSpace=wrap;html=1;direction=south;" parent="1" vertex="1">
          <mxGeometry x="613" y="400" width="74" height="120" as="geometry" />
        </mxCell>
        <mxCell id="vLBTxcqde7IN3xj8JdE4-20" style="edgeStyle=orthogonalEdgeStyle;rounded=0;orthogonalLoop=1;jettySize=auto;html=1;exitX=1;exitY=0.5;exitDx=0;exitDy=0;entryX=0;entryY=0.5;entryDx=0;entryDy=0;" parent="1" source="vLBTxcqde7IN3xj8JdE4-6" target="vLBTxcqde7IN3xj8JdE4-18" edge="1">
          <mxGeometry relative="1" as="geometry" />
        </mxCell>
        <mxCell id="vLBTxcqde7IN3xj8JdE4-21" style="edgeStyle=orthogonalEdgeStyle;rounded=0;orthogonalLoop=1;jettySize=auto;html=1;exitX=1;exitY=0.5;exitDx=0;exitDy=0;entryX=0;entryY=0.5;entryDx=0;entryDy=0;" parent="1" source="vLBTxcqde7IN3xj8JdE4-6" target="vLBTxcqde7IN3xj8JdE4-19" edge="1">
          <mxGeometry relative="1" as="geometry" />
        </mxCell>
        <mxCell id="vLBTxcqde7IN3xj8JdE4-6" value="&lt;font style=&quot;font-size: 28px;&quot;&gt;列表面板&lt;/font&gt;" style="rounded=0;whiteSpace=wrap;html=1;direction=south;" parent="1" vertex="1">
          <mxGeometry x="410" y="400" width="60" height="120" as="geometry" />
        </mxCell>
        <mxCell id="d9LXnBX2CzVpWKMC7Jwt-2" style="edgeStyle=orthogonalEdgeStyle;rounded=0;orthogonalLoop=1;jettySize=auto;html=1;exitX=1;exitY=0.5;exitDx=0;exitDy=0;entryX=0;entryY=0.5;entryDx=0;entryDy=0;" edge="1" parent="1" source="vLBTxcqde7IN3xj8JdE4-7" target="d9LXnBX2CzVpWKMC7Jwt-1">
          <mxGeometry relative="1" as="geometry" />
        </mxCell>
        <mxCell id="vLBTxcqde7IN3xj8JdE4-7" value="&lt;font style=&quot;font-size: 27px;&quot;&gt;简介面板&lt;/font&gt;" style="rounded=0;whiteSpace=wrap;html=1;direction=south;" parent="1" vertex="1">
          <mxGeometry x="265" y="400" width="60" height="120" as="geometry" />
        </mxCell>
        <mxCell id="frlS9GGQCYEtluOQWDQ7-4" style="edgeStyle=orthogonalEdgeStyle;rounded=0;orthogonalLoop=1;jettySize=auto;html=1;exitX=1;exitY=0.5;exitDx=0;exitDy=0;entryX=0;entryY=0.5;entryDx=0;entryDy=0;" parent="1" source="vLBTxcqde7IN3xj8JdE4-8" target="frlS9GGQCYEtluOQWDQ7-2" edge="1">
          <mxGeometry relative="1" as="geometry" />
        </mxCell>
        <mxCell id="frlS9GGQCYEtluOQWDQ7-5" style="edgeStyle=orthogonalEdgeStyle;rounded=0;orthogonalLoop=1;jettySize=auto;html=1;exitX=1;exitY=0.5;exitDx=0;exitDy=0;entryX=0;entryY=0.5;entryDx=0;entryDy=0;" parent="1" source="vLBTxcqde7IN3xj8JdE4-8" target="frlS9GGQCYEtluOQWDQ7-1" edge="1">
          <mxGeometry relative="1" as="geometry" />
        </mxCell>
        <mxCell id="vLBTxcqde7IN3xj8JdE4-8" value="&lt;font style=&quot;font-size: 27px;&quot;&gt;地图面板&lt;/font&gt;" style="rounded=0;whiteSpace=wrap;html=1;direction=south;" parent="1" vertex="1">
          <mxGeometry x="120" y="400" width="60" height="120" as="geometry" />
        </mxCell>
        <mxCell id="vLBTxcqde7IN3xj8JdE4-18" value="&lt;font style=&quot;font-size: 28px;&quot;&gt;高校列表&lt;/font&gt;" style="rounded=0;whiteSpace=wrap;html=1;direction=south;" parent="1" vertex="1">
          <mxGeometry x="480" y="585" width="60" height="120" as="geometry" />
        </mxCell>
        <mxCell id="vLBTxcqde7IN3xj8JdE4-19" value="&lt;font style=&quot;font-size: 28px;&quot;&gt;城市列表&lt;/font&gt;" style="rounded=0;whiteSpace=wrap;html=1;direction=south;" parent="1" vertex="1">
          <mxGeometry x="340" y="585" width="60" height="120" as="geometry" />
        </mxCell>
        <mxCell id="frlS9GGQCYEtluOQWDQ7-1" value="&lt;font style=&quot;font-size: 27px;&quot;&gt;信息查询&lt;/font&gt;" style="rounded=0;whiteSpace=wrap;html=1;direction=south;" parent="1" vertex="1">
          <mxGeometry x="175" y="585" width="60" height="120" as="geometry" />
        </mxCell>
        <mxCell id="frlS9GGQCYEtluOQWDQ7-2" value="&lt;font style=&quot;font-size: 27px;&quot;&gt;地图控件&lt;/font&gt;" style="rounded=0;whiteSpace=wrap;html=1;direction=south;" parent="1" vertex="1">
          <mxGeometry x="40" y="585" width="60" height="120" as="geometry" />
        </mxCell>
        <mxCell id="frlS9GGQCYEtluOQWDQ7-6" value="&lt;font style=&quot;font-size: 29px;&quot;&gt;删除高校&lt;/font&gt;" style="rounded=0;whiteSpace=wrap;html=1;direction=south;" parent="1" vertex="1">
          <mxGeometry x="680" y="585" width="60" height="120" as="geometry" />
        </mxCell>
        <mxCell id="frlS9GGQCYEtluOQWDQ7-7" value="&lt;font style=&quot;font-size: 29px;&quot;&gt;添加高校&lt;/font&gt;" style="rounded=0;whiteSpace=wrap;html=1;direction=south;" parent="1" vertex="1">
          <mxGeometry x="575" y="585" width="60" height="120" as="geometry" />
        </mxCell>
        <mxCell id="d9LXnBX2CzVpWKMC7Jwt-1" value="&lt;font style=&quot;font-size: 27px;&quot;&gt;简介显示&lt;/font&gt;" style="rounded=0;whiteSpace=wrap;html=1;direction=south;" vertex="1" parent="1">
          <mxGeometry x="265" y="585" width="60" height="120" as="geometry" />
        </mxCell>
      </root>
    </mxGraphModel>
  </diagram>
</mxfile>
